<svg xmlns="http://www.w3.org/2000/svg" viewBox="0 0 483 507.77"><defs><style>.cls-1{fill:#d6271f;}.cls-2{fill:#fff;}</style></defs><title>Artboard 3 copy 16</title><g id="Layer_5" data-name="Layer 5"><path class="cls-1" d="M388.58,253.94v-2c0-83.39-57.27-156.75-147.7-156.75-89.43,0-145.69,74.35-145.69,156.74v2c0,83.39,55.26,158.75,145.69,158.75C330.3,412.69,388.58,336.33,388.58,253.94Z"/><path class="cls-2" d="M173.41,363.62a7.47,7.47,0,0,1-4.74-1.69c-29.52-24.08-47.15-64.45-47.15-108v-2.07c0-35.23,11.68-68,32.88-92.26,15.31-17.52,42.73-38.4,86.45-38.4,35.32,0,65.77,13.22,88.05,38.23,21.5,24.14,33.34,57,33.34,92.44v2.06c0,34.69-12.35,68.69-33.89,93.27A120.82,120.82,0,0,1,312.92,362a7.5,7.5,0,0,1-9.36-11.72,105.89,105.89,0,0,0,13.51-12.93c19.18-21.89,30.17-52.28,30.17-83.39v-2.06c0-31.79-10.49-61.08-29.54-82.46-19.35-21.72-45.93-33.21-76.85-33.21-38.08,0-61.89,18.09-75.15,33.27-18.82,21.53-29.18,50.79-29.18,82.39v2.07c0,39.08,15.56,75.11,41.63,96.37a7.5,7.5,0,0,1-4.75,13.31Z"/><path class="cls-2" d="M240.85,349c-24.95,0-45.1-9.4-59.91-27.95-13.86-17.36-21.8-41.84-21.8-67.16v-2.07c0-26.12,8.38-50.1,23.59-67.51,14.81-16.94,34.36-25.53,58.12-25.53,24.63,0,44.81,8.62,60,25.63,15.35,17.24,23.81,41.18,23.81,67.42v2.06c0,25.7-9,50.66-24.57,68.48C284.57,340.09,264.66,349,240.85,349Zm0-175.22c-19.24,0-35,6.87-46.82,20.41-12.82,14.67-19.89,35.14-19.89,57.64v2.07c0,22,6.75,43.05,18.53,57.8s28,22.3,48.18,22.3c19.29,0,35.42-7.24,47.92-21.51,13.25-15.12,20.85-36.48,20.85-58.6v-2.06c0-22.55-7.11-43-20-57.44C277.43,180.76,261,173.83,240.85,173.83Z"/><path class="cls-2" d="M240.85,311.43c-13.48,0-22.89-4.25-30.5-13.8-8.51-10.66-13.59-27-13.59-43.69v-2.07c0-17,5.08-32.2,14.3-42.75,4.75-5.44,13-12.67,29.79-12.67,18.15,0,26.88,7.44,31.87,13a51.61,51.61,0,0,1,8.51,13.35,7.5,7.5,0,0,1-13.7,6.11,36.63,36.63,0,0,0-6-9.48c-3.53-4-8.75-8-20.67-8-10.46,0-15.07,3.62-18.5,7.54-6.83,7.82-10.59,19.5-10.59,32.88v2.07c0,13.41,3.85,26.25,10.31,34.33,4.68,5.87,10,8.15,18.78,8.15,8.54,0,14.22-2.52,19.62-8.68a42.79,42.79,0,0,0,7-11.4,7.5,7.5,0,0,1,13.79,5.91,57.72,57.72,0,0,1-9.52,15.37C263.51,307,253.69,311.43,240.85,311.43Z"/></g></svg>