<svg xmlns="http://www.w3.org/2000/svg" viewBox="0 0 1655.03 475.93"><defs><style>.cls-1{fill:#1d1d1b;}.cls-2{fill:#d6271f;}</style></defs><title>Artboard 3 copy 12</title><g id="Layer_3" data-name="Layer 3"><path class="cls-1" d="M190.84,190.38h29.78l33.86,42v-42H286v95.18H257.74l-35.35-43.92v43.92H190.84Z"/><path class="cls-1" d="M343.66,189.7h31.55l40.11,95.86H380.78l-5-12.78H342.44l-4.9,12.78h-34Zm24.2,60.51-8.7-23.12-8.7,23.12Z"/><path class="cls-1" d="M445,217.3h-28V190.38h87.84V217.3h-28v68.26H445Z"/><path class="cls-1" d="M525.85,190.38h31.82v95.18H525.85Z"/><path class="cls-1" d="M580.24,238.24V238c0-27.6,22.71-49.63,52.08-49.63s51.8,21.76,51.8,49.36V238c0,27.6-22.71,49.63-52.08,49.63S580.24,265.84,580.24,238.24Zm71.79,0V238c0-11.29-7.75-21.48-20-21.48s-19.72,10.06-19.72,21.21V238c0,11.29,7.75,21.48,20,21.48S652,249.39,652,238.24Z"/><path class="cls-1" d="M706.42,190.38h29.78l33.86,42v-42H801.6v95.18H773.31L738,241.64v43.92H706.42Z"/><path class="cls-1" d="M905.5,238.24V238c0-28.42,22.16-49.63,50.58-49.63,20.94,0,35.08,10.2,43.1,24.75l-26.24,15.37c-3.54-6.8-8.57-11.56-17.27-11.56-10.74,0-17.81,9.38-17.81,20.8V238c0,12.37,7.34,21.08,17.81,21.08,9,0,14-4.89,17.95-12l26.24,14.82c-8,14.14-21.35,25.7-45,25.7C928.47,287.59,905.5,267.74,905.5,238.24Z"/><path class="cls-1" d="M1043.77,251.83l-35.9-61.46h35.62l16.32,31.27,16.45-31.27h35.22l-35.9,61.05v34.13h-31.82Z"/><path class="cls-1" d="M1128.34,190.38h33.18l20.4,33.45,20.4-33.45h33.18v95.18h-31.68V238.37l-21.89,33.86h-.54l-21.89-33.86v47.18h-31.14Z"/><path class="cls-1" d="M1260,190.38h46.5c16.86,0,27.6,4.21,34.27,10.88,5.71,5.71,8.7,12.78,8.7,22.57v.27c0,13.87-7.21,23.52-18.76,29.1l22.16,32.36h-36.3l-17.95-27.19h-6.8v27.19H1260Zm45.55,45.28c7.61,0,12.24-3.4,12.24-9.25v-.27c0-6.12-4.76-9.11-12.1-9.11h-13.87v18.63Z"/><path class="cls-1" d="M1370,242.86V190.38h32.36v52.08c0,11.83,6.12,16.86,14.68,16.86s14.68-4.62,14.68-16.18V190.38H1464v51.8c0,32.5-18.9,45.28-47.32,45.28S1370,274.41,1370,242.86Z"/><path class="cls-2" d="M873.48,240.28V240c0-11.29-7.75-21.48-20-21.48s-19.71,10.06-19.71,21.21V240c0,11.29,7.75,21.48,20,21.48S873.48,251.43,873.48,240.28Z"/></g></svg>