<svg xmlns="http://www.w3.org/2000/svg" viewBox="0 0 1379.31 507.77"><defs><style>.cls-1{fill:#d6271f;}.cls-2{fill:#1d1d1b;}.cls-3{fill:#fff;}</style></defs><title>Artboard 3 copy 15</title><g id="Layer_5" data-name="Layer 5"><path class="cls-1" d="M645.58,312.49v-.27c0-11.29-7.75-21.48-20-21.48s-19.72,10.06-19.72,21.21v.27c0,11.29,7.75,21.48,20,21.48S645.58,323.64,645.58,312.49Z"/><path class="cls-2" d="M578.18,148.34H608l33.86,42v-42h31.54v95.18H645.08L609.73,199.6v43.92H578.18Z"/><path class="cls-2" d="M731,147.66h31.55l40.11,95.86H768.13l-5-12.78H729.78l-4.9,12.78h-34Zm24.2,60.51L746.51,185l-8.7,23.12Z"/><path class="cls-2" d="M832.3,175.26h-28V148.34h87.84v26.92h-28v68.26H832.3Z"/><path class="cls-2" d="M913.2,148.34H945v95.18H913.2Z"/><path class="cls-2" d="M967.58,196.2v-.27c0-27.6,22.71-49.63,52.08-49.63s51.8,21.76,51.8,49.36v.27c0,27.6-22.71,49.63-52.08,49.63S967.58,223.8,967.58,196.2Zm71.79,0v-.27c0-11.29-7.75-21.48-20-21.48s-19.72,10.06-19.72,21.21v.27c0,11.29,7.75,21.48,20,21.48S1039.38,207.35,1039.38,196.2Z"/><path class="cls-2" d="M1093.76,148.34h29.78l33.86,42v-42h31.55v95.18h-28.28L1125.3,199.6v43.92h-31.54Z"/><path class="cls-2" d="M672.89,312.49v-.27c0-28.42,22.16-49.63,50.58-49.63,20.94,0,35.08,10.2,43.1,24.75L740.33,302.7c-3.54-6.8-8.57-11.56-17.27-11.56-10.74,0-17.81,9.38-17.81,20.8v.27c0,12.37,7.34,21.08,17.81,21.08,9,0,14-4.89,17.95-12l26.24,14.82c-8,14.14-21.35,25.7-45,25.7C695.87,361.85,672.89,342,672.89,312.49Z"/><path class="cls-2" d="M800.83,326.09l-35.9-61.46h35.63l16.32,31.27,16.45-31.27h35.22l-35.9,61.05v34.13H800.83Z"/><path class="cls-2" d="M875.07,264.63h33.18l20.4,33.45L949,264.63h33.18v95.18H950.53V312.63l-21.89,33.86h-.54l-21.89-33.86v47.18H875.07Z"/><path class="cls-2" d="M995.13,264.63h46.5c16.86,0,27.6,4.21,34.26,10.88,5.71,5.71,8.7,12.78,8.7,22.57v.27c0,13.87-7.21,23.52-18.76,29.1L1088,359.81h-36.3l-17.95-27.19h-6.8v27.19H995.13Zm45.55,45.28c7.61,0,12.24-3.4,12.24-9.25v-.27c0-6.12-4.76-9.11-12.1-9.11h-13.87v18.63Z"/><path class="cls-2" d="M1093.76,317.12V264.63h32.74v52.08c0,11.83,6.19,16.86,14.85,16.86s14.85-4.62,14.85-16.18V264.63h32.74v51.8c0,32.5-19.12,45.28-47.86,45.28S1093.76,348.66,1093.76,317.12Z"/><path class="cls-1" d="M483.76,253.94v-2c0-83.39-57.27-156.75-147.7-156.75-89.43,0-145.69,74.35-145.69,156.74v2c0,83.39,55.26,158.75,145.69,158.75C425.49,412.69,483.76,336.33,483.76,253.94Z"/><path class="cls-3" d="M268.59,363.62a7.47,7.47,0,0,1-4.74-1.69c-29.52-24.08-47.15-64.45-47.15-108v-2.07c0-35.23,11.68-68,32.88-92.26,15.31-17.52,42.73-38.4,86.45-38.4,35.32,0,65.77,13.22,88.05,38.23,21.5,24.14,33.34,57,33.34,92.44v2.06c0,34.69-12.35,68.69-33.89,93.27A120.82,120.82,0,0,1,408.1,362a7.5,7.5,0,0,1-9.36-11.72,105.89,105.89,0,0,0,13.51-12.93c19.18-21.89,30.17-52.28,30.17-83.39v-2.06c0-31.79-10.49-61.08-29.54-82.46C393.53,147.69,367,136.21,336,136.21c-38.08,0-61.89,18.09-75.15,33.27-18.82,21.53-29.18,50.79-29.18,82.39v2.07c0,39.08,15.56,75.11,41.63,96.37a7.5,7.5,0,0,1-4.75,13.31Z"/><path class="cls-3" d="M336,349c-24.95,0-45.1-9.4-59.91-27.95-13.86-17.36-21.8-41.84-21.8-67.16v-2.07c0-26.12,8.38-50.1,23.59-67.51,14.81-16.94,34.36-25.53,58.12-25.53,24.63,0,44.81,8.62,60,25.63,15.35,17.24,23.81,41.18,23.81,67.42v2.06c0,25.7-9,50.66-24.57,68.48C379.76,340.09,359.84,349,336,349Zm0-175.22c-19.24,0-35,6.87-46.82,20.41-12.82,14.67-19.89,35.14-19.89,57.64v2.07c0,22,6.75,43.05,18.53,57.8S315.88,334,336,334c19.29,0,35.42-7.24,47.92-21.51,13.25-15.12,20.85-36.48,20.85-58.6v-2.06c0-22.55-7.11-43-20-57.44C372.61,180.76,356.21,173.83,336,173.83Z"/><path class="cls-3" d="M336,311.43c-13.48,0-22.89-4.25-30.5-13.8-8.51-10.66-13.59-27-13.59-43.69v-2.07c0-17,5.08-32.2,14.3-42.75,4.75-5.44,13-12.67,29.79-12.67,18.15,0,26.88,7.44,31.87,13a51.61,51.61,0,0,1,8.51,13.35,7.5,7.5,0,0,1-13.7,6.11,36.63,36.63,0,0,0-6-9.48c-3.53-4-8.75-8-20.67-8-10.46,0-15.07,3.62-18.5,7.54-6.83,7.82-10.59,19.5-10.59,32.88v2.07c0,13.41,3.85,26.25,10.31,34.33,4.68,5.87,10,8.15,18.78,8.15,8.54,0,14.22-2.52,19.62-8.68a42.79,42.79,0,0,0,7-11.4,7.5,7.5,0,0,1,13.79,5.91,57.72,57.72,0,0,1-9.52,15.37C358.69,307,348.87,311.43,336,311.43Z"/></g></svg>